<svg xmlns="http://www.w3.org/2000/svg" width="1240" height="1410" viewBox="0 0 1240 1410">
<rect width="1240" height="1410" fill="#080f1b"/>
<text x="48" y="45" font-family="Arial, sans-serif" font-size="12" font-weight="normal" fill="#dab97b">CELESTIAL FRONTIER  /  U3 ICON STUDY 01</text>
<text x="48" y="97" font-family="Arial, sans-serif" font-size="35" font-weight="bold" fill="#e8f0f8">Familiar symbols. A shared visual language.</text>
<text x="48" y="133" font-family="Arial, sans-serif" font-size="18" font-weight="normal" fill="#a3b5c8">Current emoji and text symbols beside one original SVG direction.</text>
<text x="48" y="158" font-family="Arial, sans-serif" font-size="13" font-weight="normal" fill="#a3b5c8">Review only: no product replacement. 24px symbols in 44px targets; same icon scale in both columns.</text>
<rect x="48" y="190" width="564" height="166" rx="16" fill="#111e30" stroke="#294059"/>
<text x="70" y="221" font-family="Arial, sans-serif" font-size="18" font-weight="bold" fill="#e8f0f8">Survey</text>
<text x="70" y="244" font-family="Arial, sans-serif" font-size="12" font-weight="normal" fill="#a3b5c8">Reopen the selected object or landed world.</text>
<text x="70" y="272" font-family="Arial, sans-serif" font-size="10" font-weight="normal" fill="#a3b5c8">CURRENT</text>
<text x="226" y="272" font-family="Arial, sans-serif" font-size="10" font-weight="normal" fill="#a3b5c8">ORBIT LINE · STUDY</text>
<text x="417" y="272" font-family="Arial, sans-serif" font-size="10" font-weight="normal" fill="#a3b5c8">SELECTED</text>
<rect x="70" y="286" width="92" height="44" rx="22" fill="#0d1928" stroke="#294059"/>
<rect x="226" y="286" width="92" height="44" rx="22" fill="#0d1928" stroke="#294059"/>
<rect x="417" y="286" width="92" height="44" rx="22" fill="#332b20" stroke="#ae8a4f"/>
<text x="83" y="316" font-family="Apple Color Emoji, Arial, sans-serif" font-size="24" font-weight="normal" fill="#e8f0f8">🔭</text>
<g transform="translate(259 296)" fill="none" stroke="#a5d8e8" stroke-width="1.65" stroke-linecap="round" stroke-linejoin="round"><path d="m4 9 11-6 3 5-11 6zM3 9l2-1 3 5-2 1M16 2l3 5M12 12v3m0 0-5 7m5-7 5 7m-5-7v7"/></g>
<g transform="translate(450 296)" fill="none" stroke="#dab97b" stroke-width="1.65" stroke-linecap="round" stroke-linejoin="round"><path d="m4 9 11-6 3 5-11 6zM3 9l2-1 3 5-2 1M16 2l3 5M12 12v3m0 0-5 7m5-7 5 7m-5-7v7"/></g>
<rect x="628" y="190" width="564" height="166" rx="16" fill="#111e30" stroke="#294059"/>
<text x="650" y="221" font-family="Arial, sans-serif" font-size="18" font-weight="bold" fill="#e8f0f8">Compendium</text>
<text x="650" y="244" font-family="Arial, sans-serif" font-size="12" font-weight="normal" fill="#a3b5c8">Browse the species catalogue.</text>
<text x="650" y="272" font-family="Arial, sans-serif" font-size="10" font-weight="normal" fill="#a3b5c8">CURRENT</text>
<text x="806" y="272" font-family="Arial, sans-serif" font-size="10" font-weight="normal" fill="#a3b5c8">ORBIT LINE · STUDY</text>
<text x="997" y="272" font-family="Arial, sans-serif" font-size="10" font-weight="normal" fill="#a3b5c8">SELECTED</text>
<rect x="650" y="286" width="92" height="44" rx="22" fill="#0d1928" stroke="#294059"/>
<rect x="806" y="286" width="92" height="44" rx="22" fill="#0d1928" stroke="#294059"/>
<rect x="997" y="286" width="92" height="44" rx="22" fill="#332b20" stroke="#ae8a4f"/>
<text x="663" y="316" font-family="Apple Color Emoji, Arial, sans-serif" font-size="24" font-weight="normal" fill="#e8f0f8">📖</text>
<g transform="translate(839 296)" fill="none" stroke="#a5d8e8" stroke-width="1.65" stroke-linecap="round" stroke-linejoin="round"><path d="M12 5C9 3 5 3 2.5 4v15C6 18 9 18 12 20c3-2 6-2 9.5-1V4C19 3 15 3 12 5Zm0 0v15M6 7l3 .5M6 11l3 .5m6-4 3-.5m-3 4 3-.5"/></g>
<g transform="translate(1030 296)" fill="none" stroke="#dab97b" stroke-width="1.65" stroke-linecap="round" stroke-linejoin="round"><path d="M12 5C9 3 5 3 2.5 4v15C6 18 9 18 12 20c3-2 6-2 9.5-1V4C19 3 15 3 12 5Zm0 0v15M6 7l3 .5M6 11l3 .5m6-4 3-.5m-3 4 3-.5"/></g>
<rect x="48" y="372" width="564" height="166" rx="16" fill="#111e30" stroke="#294059"/>
<text x="70" y="403" font-family="Arial, sans-serif" font-size="18" font-weight="bold" fill="#e8f0f8">Prime</text>
<text x="70" y="426" font-family="Arial, sans-serif" font-size="12" font-weight="normal" fill="#a3b5c8">Track nine Prime signatures; keep the visible count.</text>
<text x="70" y="454" font-family="Arial, sans-serif" font-size="10" font-weight="normal" fill="#a3b5c8">CURRENT</text>
<text x="226" y="454" font-family="Arial, sans-serif" font-size="10" font-weight="normal" fill="#a3b5c8">ORBIT LINE · STUDY</text>
<text x="417" y="454" font-family="Arial, sans-serif" font-size="10" font-weight="normal" fill="#a3b5c8">SELECTED</text>
<rect x="70" y="468" width="92" height="44" rx="22" fill="#0d1928" stroke="#294059"/>
<rect x="226" y="468" width="92" height="44" rx="22" fill="#0d1928" stroke="#294059"/>
<rect x="417" y="468" width="92" height="44" rx="22" fill="#332b20" stroke="#ae8a4f"/>
<text x="83" y="498" font-family="Apple Color Emoji, Arial, sans-serif" font-size="24" font-weight="normal" fill="#e8f0f8">✦</text>
<text x="114" y="496" font-family="Arial, sans-serif" font-size="12" font-weight="normal" fill="#e8f0f8">0/9</text>
<g transform="translate(252 478)" fill="none" stroke="#a5d8e8" stroke-width="1.65" stroke-linecap="round" stroke-linejoin="round"><path d="m12 2 2.5 7.5L22 12l-7.5 2.5L12 22l-2.5-7.5L2 12l7.5-2.5Z"/><path d="m19 3 .7 1.3L21 5l-1.3.7L19 7l-.7-1.3L17 5l1.3-.7Z" stroke-width="1.2"/></g>
<text x="280" y="496" font-family="Arial, sans-serif" font-size="12" font-weight="normal" fill="#e8f0f8">0/9</text>
<g transform="translate(443 478)" fill="none" stroke="#dab97b" stroke-width="1.65" stroke-linecap="round" stroke-linejoin="round"><path d="m12 2 2.5 7.5L22 12l-7.5 2.5L12 22l-2.5-7.5L2 12l7.5-2.5Z"/><path d="m19 3 .7 1.3L21 5l-1.3.7L19 7l-.7-1.3L17 5l1.3-.7Z" stroke-width="1.2"/></g>
<text x="471" y="496" font-family="Arial, sans-serif" font-size="12" font-weight="normal" fill="#e8f0f8">0/9</text>
<rect x="628" y="372" width="564" height="166" rx="16" fill="#111e30" stroke="#294059"/>
<text x="650" y="403" font-family="Arial, sans-serif" font-size="18" font-weight="bold" fill="#e8f0f8">Shipyard</text>
<text x="650" y="426" font-family="Arial, sans-serif" font-size="12" font-weight="normal" fill="#a3b5c8">Build, equip and manage ships.</text>
<text x="650" y="454" font-family="Arial, sans-serif" font-size="10" font-weight="normal" fill="#a3b5c8">CURRENT</text>
<text x="806" y="454" font-family="Arial, sans-serif" font-size="10" font-weight="normal" fill="#a3b5c8">ORBIT LINE · STUDY</text>
<text x="997" y="454" font-family="Arial, sans-serif" font-size="10" font-weight="normal" fill="#a3b5c8">SELECTED</text>
<rect x="650" y="468" width="92" height="44" rx="22" fill="#0d1928" stroke="#294059"/>
<rect x="806" y="468" width="92" height="44" rx="22" fill="#0d1928" stroke="#294059"/>
<rect x="997" y="468" width="92" height="44" rx="22" fill="#332b20" stroke="#ae8a4f"/>
<text x="663" y="498" font-family="Apple Color Emoji, Arial, sans-serif" font-size="24" font-weight="normal" fill="#e8f0f8">🛠</text>
<g transform="translate(839 478)" fill="none" stroke="#a5d8e8" stroke-width="1.65" stroke-linecap="round" stroke-linejoin="round"><path d="m5 3 4 4-2 2-4-4-1 4 4 4 4-1 9 9 3-3-9-9 1-4-4-4ZM15 14l-7 7-3-3 7-7"/></g>
<g transform="translate(1030 478)" fill="none" stroke="#dab97b" stroke-width="1.65" stroke-linecap="round" stroke-linejoin="round"><path d="m5 3 4 4-2 2-4-4-1 4 4 4 4-1 9 9 3-3-9-9 1-4-4-4ZM15 14l-7 7-3-3 7-7"/></g>
<rect x="48" y="554" width="564" height="166" rx="16" fill="#111e30" stroke="#294059"/>
<text x="70" y="585" font-family="Arial, sans-serif" font-size="18" font-weight="bold" fill="#e8f0f8">Atlas</text>
<text x="70" y="608" font-family="Arial, sans-serif" font-size="12" font-weight="normal" fill="#a3b5c8">Explore the star map.</text>
<text x="70" y="636" font-family="Arial, sans-serif" font-size="10" font-weight="normal" fill="#a3b5c8">CURRENT</text>
<text x="226" y="636" font-family="Arial, sans-serif" font-size="10" font-weight="normal" fill="#a3b5c8">ORBIT LINE · STUDY</text>
<text x="417" y="636" font-family="Arial, sans-serif" font-size="10" font-weight="normal" fill="#a3b5c8">SELECTED</text>
<rect x="70" y="650" width="92" height="44" rx="22" fill="#0d1928" stroke="#294059"/>
<rect x="226" y="650" width="92" height="44" rx="22" fill="#0d1928" stroke="#294059"/>
<rect x="417" y="650" width="92" height="44" rx="22" fill="#332b20" stroke="#ae8a4f"/>
<text x="83" y="680" font-family="Apple Color Emoji, Arial, sans-serif" font-size="24" font-weight="normal" fill="#e8f0f8">🌍</text>
<g transform="translate(259 660)" fill="none" stroke="#a5d8e8" stroke-width="1.65" stroke-linecap="round" stroke-linejoin="round"><circle cx="12" cy="12" r="8"/><ellipse cx="12" cy="12" rx="3.5" ry="8"/><path d="M4 12h16M6 7h12M6 17h12"/></g>
<g transform="translate(450 660)" fill="none" stroke="#dab97b" stroke-width="1.65" stroke-linecap="round" stroke-linejoin="round"><circle cx="12" cy="12" r="8"/><ellipse cx="12" cy="12" rx="3.5" ry="8"/><path d="M4 12h16M6 7h12M6 17h12"/></g>
<rect x="628" y="554" width="564" height="166" rx="16" fill="#111e30" stroke="#294059"/>
<text x="650" y="585" font-family="Arial, sans-serif" font-size="18" font-weight="bold" fill="#e8f0f8">Records</text>
<text x="650" y="608" font-family="Arial, sans-serif" font-size="12" font-weight="normal" fill="#a3b5c8">Review records and achievements.</text>
<text x="650" y="636" font-family="Arial, sans-serif" font-size="10" font-weight="normal" fill="#a3b5c8">CURRENT</text>
<text x="806" y="636" font-family="Arial, sans-serif" font-size="10" font-weight="normal" fill="#a3b5c8">ORBIT LINE · STUDY</text>
<text x="997" y="636" font-family="Arial, sans-serif" font-size="10" font-weight="normal" fill="#a3b5c8">SELECTED</text>
<rect x="650" y="650" width="92" height="44" rx="22" fill="#0d1928" stroke="#294059"/>
<rect x="806" y="650" width="92" height="44" rx="22" fill="#0d1928" stroke="#294059"/>
<rect x="997" y="650" width="92" height="44" rx="22" fill="#332b20" stroke="#ae8a4f"/>
<text x="663" y="680" font-family="Apple Color Emoji, Arial, sans-serif" font-size="24" font-weight="normal" fill="#e8f0f8">🏆</text>
<g transform="translate(839 660)" fill="none" stroke="#a5d8e8" stroke-width="1.65" stroke-linecap="round" stroke-linejoin="round"><path d="M7 3h10v5c0 4-2 6-5 6s-5-2-5-6V3ZM7 5H3v3c0 3 2 4 5 4m9-7h4v3c0 3-2 4-5 4M12 14v5m-4 2h8m-6-2h4"/></g>
<g transform="translate(1030 660)" fill="none" stroke="#dab97b" stroke-width="1.65" stroke-linecap="round" stroke-linejoin="round"><path d="M7 3h10v5c0 4-2 6-5 6s-5-2-5-6V3ZM7 5H3v3c0 3 2 4 5 4m9-7h4v3c0 3-2 4-5 4M12 14v5m-4 2h8m-6-2h4"/></g>
<rect x="48" y="736" width="564" height="166" rx="16" fill="#111e30" stroke="#294059"/>
<text x="70" y="767" font-family="Arial, sans-serif" font-size="18" font-weight="bold" fill="#e8f0f8">Notifications</text>
<text x="70" y="790" font-family="Arial, sans-serif" font-size="12" font-weight="normal" fill="#a3b5c8">Read saved alerts and updates.</text>
<text x="70" y="818" font-family="Arial, sans-serif" font-size="10" font-weight="normal" fill="#a3b5c8">CURRENT</text>
<text x="226" y="818" font-family="Arial, sans-serif" font-size="10" font-weight="normal" fill="#a3b5c8">ORBIT LINE · STUDY</text>
<text x="417" y="818" font-family="Arial, sans-serif" font-size="10" font-weight="normal" fill="#a3b5c8">SELECTED</text>
<rect x="70" y="832" width="92" height="44" rx="22" fill="#0d1928" stroke="#294059"/>
<rect x="226" y="832" width="92" height="44" rx="22" fill="#0d1928" stroke="#294059"/>
<rect x="417" y="832" width="92" height="44" rx="22" fill="#332b20" stroke="#ae8a4f"/>
<text x="83" y="862" font-family="Apple Color Emoji, Arial, sans-serif" font-size="24" font-weight="normal" fill="#e8f0f8">🔔</text>
<g transform="translate(259 842)" fill="none" stroke="#a5d8e8" stroke-width="1.65" stroke-linecap="round" stroke-linejoin="round"><path d="M5 17c2-2 2-4 2-7a5 5 0 0 1 10 0c0 3 0 5 2 7H5ZM10 20a2.2 2.2 0 0 0 4 0M12 3V2"/></g>
<g transform="translate(450 842)" fill="none" stroke="#dab97b" stroke-width="1.65" stroke-linecap="round" stroke-linejoin="round"><path d="M5 17c2-2 2-4 2-7a5 5 0 0 1 10 0c0 3 0 5 2 7H5ZM10 20a2.2 2.2 0 0 0 4 0M12 3V2"/></g>
<rect x="628" y="736" width="564" height="166" rx="16" fill="#111e30" stroke="#294059"/>
<text x="650" y="767" font-family="Arial, sans-serif" font-size="18" font-weight="bold" fill="#e8f0f8">Guide</text>
<text x="650" y="790" font-family="Arial, sans-serif" font-size="12" font-weight="normal" fill="#a3b5c8">Open instructions and reference information.</text>
<text x="650" y="818" font-family="Arial, sans-serif" font-size="10" font-weight="normal" fill="#a3b5c8">CURRENT</text>
<text x="806" y="818" font-family="Arial, sans-serif" font-size="10" font-weight="normal" fill="#a3b5c8">ORBIT LINE · STUDY</text>
<text x="997" y="818" font-family="Arial, sans-serif" font-size="10" font-weight="normal" fill="#a3b5c8">SELECTED</text>
<rect x="650" y="832" width="92" height="44" rx="22" fill="#0d1928" stroke="#294059"/>
<rect x="806" y="832" width="92" height="44" rx="22" fill="#0d1928" stroke="#294059"/>
<rect x="997" y="832" width="92" height="44" rx="22" fill="#332b20" stroke="#ae8a4f"/>
<text x="663" y="862" font-family="Apple Color Emoji, Arial, sans-serif" font-size="24" font-weight="normal" fill="#e8f0f8">?</text>
<g transform="translate(839 842)" fill="none" stroke="#a5d8e8" stroke-width="1.65" stroke-linecap="round" stroke-linejoin="round"><circle cx="12" cy="12" r="9"/><path d="M9.2 8a3 3 0 0 1 5.6 1c0 2-2.8 2-2.8 4M12 17h.01"/></g>
<g transform="translate(1030 842)" fill="none" stroke="#dab97b" stroke-width="1.65" stroke-linecap="round" stroke-linejoin="round"><circle cx="12" cy="12" r="9"/><path d="M9.2 8a3 3 0 0 1 5.6 1c0 2-2.8 2-2.8 4M12 17h.01"/></g>
<rect x="48" y="918" width="564" height="166" rx="16" fill="#111e30" stroke="#294059"/>
<text x="70" y="949" font-family="Arial, sans-serif" font-size="18" font-weight="bold" fill="#e8f0f8">Settings</text>
<text x="70" y="972" font-family="Arial, sans-serif" font-size="12" font-weight="normal" fill="#a3b5c8">Adjust display, sound and preferences.</text>
<text x="70" y="1000" font-family="Arial, sans-serif" font-size="10" font-weight="normal" fill="#a3b5c8">CURRENT</text>
<text x="226" y="1000" font-family="Arial, sans-serif" font-size="10" font-weight="normal" fill="#a3b5c8">ORBIT LINE · STUDY</text>
<text x="417" y="1000" font-family="Arial, sans-serif" font-size="10" font-weight="normal" fill="#a3b5c8">SELECTED</text>
<rect x="70" y="1014" width="92" height="44" rx="22" fill="#0d1928" stroke="#294059"/>
<rect x="226" y="1014" width="92" height="44" rx="22" fill="#0d1928" stroke="#294059"/>
<rect x="417" y="1014" width="92" height="44" rx="22" fill="#332b20" stroke="#ae8a4f"/>
<text x="83" y="1044" font-family="Apple Color Emoji, Arial, sans-serif" font-size="24" font-weight="normal" fill="#e8f0f8">⚙</text>
<g transform="translate(259 1024)" fill="none" stroke="#a5d8e8" stroke-width="1.65" stroke-linecap="round" stroke-linejoin="round"><path d="m10 2-.5 3-2 .9-2.5-1.4-2 3.5 2 1.8v2.4l-2 1.8 2 3.5L7.5 16l2 .9.5 3h4l.5-3 2-.9 2.5 1.5 2-3.5-2-1.8V9.8l2-1.8-2-3.5-2.5 1.4-2-.9-.5-3Z"/><circle cx="12" cy="11.5" r="3"/></g>
<g transform="translate(450 1024)" fill="none" stroke="#dab97b" stroke-width="1.65" stroke-linecap="round" stroke-linejoin="round"><path d="m10 2-.5 3-2 .9-2.5-1.4-2 3.5 2 1.8v2.4l-2 1.8 2 3.5L7.5 16l2 .9.5 3h4l.5-3 2-.9 2.5 1.5 2-3.5-2-1.8V9.8l2-1.8-2-3.5-2.5 1.4-2-.9-.5-3Z"/><circle cx="12" cy="11.5" r="3"/></g>
<rect x="628" y="918" width="564" height="166" rx="16" fill="#111e30" stroke="#294059"/>
<text x="650" y="949" font-family="Arial, sans-serif" font-size="18" font-weight="bold" fill="#e8f0f8">Objective / Charters</text>
<text x="650" y="972" font-family="Arial, sans-serif" font-size="12" font-weight="normal" fill="#a3b5c8">Open Charters; keep objective text and progress.</text>
<text x="650" y="1000" font-family="Arial, sans-serif" font-size="10" font-weight="normal" fill="#a3b5c8">CURRENT</text>
<text x="806" y="1000" font-family="Arial, sans-serif" font-size="10" font-weight="normal" fill="#a3b5c8">ORBIT LINE · STUDY</text>
<text x="997" y="1000" font-family="Arial, sans-serif" font-size="10" font-weight="normal" fill="#a3b5c8">SELECTED</text>
<rect x="650" y="1014" width="92" height="44" rx="22" fill="#0d1928" stroke="#294059"/>
<rect x="806" y="1014" width="92" height="44" rx="22" fill="#0d1928" stroke="#294059"/>
<rect x="997" y="1014" width="92" height="44" rx="22" fill="#332b20" stroke="#ae8a4f"/>
<text x="663" y="1044" font-family="Apple Color Emoji, Arial, sans-serif" font-size="24" font-weight="normal" fill="#e8f0f8">⬆ / 📜</text>
<g transform="translate(839 1024)" fill="none" stroke="#a5d8e8" stroke-width="1.65" stroke-linecap="round" stroke-linejoin="round"><path d="M6 3h12v16a2 2 0 0 1-2 2H6a2 2 0 0 1-2-2v-2h12v2M6 3a2 2 0 0 0-2 2v2h4V5a2 2 0 0 0-2-2Zm4 7 3-3 3 3m-3-3v7"/></g>
<g transform="translate(1030 1024)" fill="none" stroke="#dab97b" stroke-width="1.65" stroke-linecap="round" stroke-linejoin="round"><path d="M6 3h12v16a2 2 0 0 1-2 2H6a2 2 0 0 1-2-2v-2h12v2M6 3a2 2 0 0 0-2 2v2h4V5a2 2 0 0 0-2-2Zm4 7 3-3 3 3m-3-3v7"/></g>
<text x="48" y="1147" font-family="Arial, sans-serif" font-size="12" font-weight="normal" fill="#dab97b">ONE SYSTEM, DISTINCT SILHOUETTES</text>
<text x="48" y="1180" font-family="Arial, sans-serif" font-size="19" font-weight="normal" fill="#e8f0f8">24-unit grid · 1.65-unit rounded stroke · Ice accent / gold selected state</text>
<text x="48" y="1212" font-family="Arial, sans-serif" font-size="15" font-weight="normal" fill="#a3b5c8">Prime N/9 and objective text/progress remain separate, visible information.</text>
<text x="48" y="1239" font-family="Arial, sans-serif" font-size="15" font-weight="normal" fill="#a3b5c8">Guide currently uses “?”; Prime uses “✦”; Objective uses “⬆” or the Charters scroll.</text>
<text x="48" y="1290" font-family="Arial, sans-serif" font-size="12" font-weight="normal" fill="#dab97b">CHOICE FOR NICK</text>
<text x="48" y="1320" font-family="Arial, sans-serif" font-size="18" font-weight="normal" fill="#e8f0f8">Keep the colorful current symbols, or refine the original Orbit line SVG direction.</text>
<text x="48" y="1364" font-family="Arial, sans-serif" font-size="12" font-weight="normal" fill="#8398af">Original paths: OpenAI/Codex for Celestial Frontier · 2026-09-06 · No third-party icon artwork.</text>
<text x="48" y="1387" font-family="Arial, sans-serif" font-size="12" font-weight="normal" fill="#8398af">Current glyph appearance is supplied by the local font renderer. No fonts are embedded or redistributed.</text>
</svg>
