<svg xmlns="http://www.w3.org/2000/svg" width="1254" height="1254" viewBox="0 0 1254 1254"><rect width="1254" height="1254" fill="white"/><text x="100" y="95" font-family="Arial" font-size="28">POSE GUIDE ONLY — 8 walking legs; face right</text><polyline points="785,510 960,370 1110,660" fill="none" stroke="#2463eb" stroke-width="34" stroke-linecap="round" stroke-linejoin="round"/><polyline points="745,505 865,260 1070,480" fill="none" stroke="#8957dd" stroke-width="34" stroke-linecap="round" stroke-linejoin="round"/><polyline points="675,515 570,240 400,380" fill="none" stroke="#00a79d" stroke-width="34" stroke-linecap="round" stroke-linejoin="round"/><polyline points="635,535 375,340 225,500" fill="none" stroke="#e49512" stroke-width="34" stroke-linecap="round" stroke-linejoin="round"/><ellipse cx="460" cy="535" rx="150" ry="112" fill="#ddd" stroke="#444" stroke-width="4"/><ellipse cx="710" cy="555" rx="135" ry="100" fill="#bbb" stroke="#444" stroke-width="4"/><path d="M830 560 Q910 580 890 640 M825 590 Q880 625 850 655" fill="none" stroke="#555" stroke-width="16" stroke-linecap="round"/><polyline points="805,600 1010,700 1090,925" fill="none" stroke="#db3131" stroke-width="34" stroke-linecap="round" stroke-linejoin="round"/><polyline points="750,615 870,820 820,1070" fill="none" stroke="#f07635" stroke-width="34" stroke-linecap="round" stroke-linejoin="round"/><polyline points="695,625 580,820 520,1040" fill="none" stroke="#2a9c45" stroke-width="34" stroke-linecap="round" stroke-linejoin="round"/><polyline points="625,620 390,715 200,920" fill="none" stroke="#b933a5" stroke-width="34" stroke-linecap="round" stroke-linejoin="round"/><circle cx="1110" cy="660" r="10" fill="black"/><text x="1085" y="705" font-family="Arial" font-size="24" fill="#2463eb">1F</text><circle cx="1070" cy="480" r="10" fill="black"/><text x="1045" y="525" font-family="Arial" font-size="24" fill="#8957dd">2F</text><circle cx="400" cy="380" r="10" fill="black"/><text x="375" y="425" font-family="Arial" font-size="24" fill="#00a79d">3F</text><circle cx="225" cy="500" r="10" fill="black"/><text x="200" y="545" font-family="Arial" font-size="24" fill="#e49512">4F</text><circle cx="1090" cy="925" r="10" fill="black"/><text x="1065" y="970" font-family="Arial" font-size="24" fill="#db3131">1N</text><circle cx="820" cy="1070" r="10" fill="black"/><text x="795" y="1115" font-family="Arial" font-size="24" fill="#f07635">2N</text><circle cx="520" cy="1040" r="10" fill="black"/><text x="495" y="1085" font-family="Arial" font-size="24" fill="#2a9c45">3N</text><circle cx="200" cy="920" r="10" fill="black"/><text x="175" y="965" font-family="Arial" font-size="24" fill="#b933a5">4N</text></svg>